<svg width="2819" height="1499" xmlns="http://www.w3.org/2000/svg" xmlns:xlink="http://www.w3.org/1999/xlink" xml:space="preserve" overflow="hidden"><defs><clipPath id="clip0"><rect x="242" y="710" width="2819" height="1499"/></clipPath></defs><g clip-path="url(#clip0)" transform="translate(-242 -710)"><rect x="248.5" y="1935.5" width="2807" height="267" stroke="#000000" stroke-width="6.875" stroke-linecap="butt" stroke-linejoin="miter" stroke-miterlimit="8" stroke-opacity="1" fill="#FFFFFF" fill-opacity="1"/><text fill="#000000" fill-opacity="1" font-family="Arial,Arial_MSFontService,sans-serif" font-style="normal" font-variant="normal" font-weight="400" font-stretch="normal" font-size="119" text-anchor="start" direction="ltr" writing-mode="lr-tb" unicode-bidi="normal" text-decoration="none" transform="matrix(1 0 0 1 1253.54 2106)">Summarization</text><path d="M3055.5 1795.9 1703.25 1795.9 1703.25 1837 1754.5 1837 1652 1939.5 1549.5 1837 1600.75 1837 1600.75 1795.9 248.5 1795.9 248.5 1529.5 3055.5 1529.5Z" stroke="#000000" stroke-width="6.875" stroke-linecap="butt" stroke-linejoin="miter" stroke-miterlimit="8" stroke-opacity="1" fill="#FFFFFF" fill-rule="evenodd" fill-opacity="1"/><text fill="#000000" fill-opacity="1" font-family="Arial,Arial_MSFontService,sans-serif" font-style="normal" font-variant="normal" font-weight="400" font-stretch="normal" font-size="119" text-anchor="start" direction="ltr" writing-mode="lr-tb" unicode-bidi="normal" text-decoration="none" transform="matrix(1 0 0 1 1266.15 1700)">Shot Selection</text><path d="M3055.5 1389.56 1703.38 1389.56 1703.38 1430.75 1754.75 1430.75 1652 1533.5 1549.25 1430.75 1600.62 1430.75 1600.62 1389.56 248.5 1389.56 248.5 1122.5 3055.5 1122.5Z" stroke="#000000" stroke-width="6.875" stroke-linecap="butt" stroke-linejoin="miter" stroke-miterlimit="8" stroke-opacity="1" fill="#FFFFFF" fill-rule="evenodd" fill-opacity="1"/><text fill="#006900" fill-opacity="1" font-family="Arial,Arial_MSFontService,sans-serif" font-style="normal" font-variant="normal" font-weight="700" font-stretch="normal" font-size="119" text-anchor="start" direction="ltr" writing-mode="lr-tb" unicode-bidi="normal" text-decoration="none" transform="matrix(1 0 0 1 753.958 1293)">Shot Boundary Detection (SBD)</text><path d="M3055.5 982.905 1703.25 982.905 1703.25 1024 1754.5 1024 1652 1126.5 1549.5 1024 1600.75 1024 1600.75 982.905 248.5 982.905 248.5 716.5 3055.5 716.5Z" stroke="#000000" stroke-width="6.875" stroke-linecap="butt" stroke-linejoin="miter" stroke-miterlimit="8" stroke-opacity="1" fill="#FFFFFF" fill-rule="evenodd" fill-opacity="1"/><text fill="#000000" fill-opacity="1" font-family="Arial,Arial_MSFontService,sans-serif" font-style="normal" font-variant="normal" font-weight="400" font-stretch="normal" font-size="119" text-anchor="start" direction="ltr" writing-mode="lr-tb" unicode-bidi="normal" text-decoration="none" transform="matrix(1 0 0 1 1385.89 887)">Full Video</text></g></svg>